<svg width="65" height="66" viewBox="0 0 65 66" fill="none" xmlns="http://www.w3.org/2000/svg">
<path fill-rule="evenodd" clip-rule="evenodd" d="M40.6343 29.1066C38.5194 28.7582 36.8618 27.1006 36.5134 24.9857L32.5 0.619995L28.4866 24.9857C28.1382 27.1006 26.4806 28.7582 24.3657 29.1066L0 33.12L24.3657 37.1334C26.4806 37.4818 28.1382 39.1394 28.4866 41.2543L32.5 65.62L36.5134 41.2543C36.8618 39.1394 38.5194 37.4818 40.6343 37.1334L65 33.12L40.6343 29.1066ZM32.5812 35.2325C33.7031 35.2325 34.6125 34.3231 34.6125 33.2012C34.6125 32.0794 33.7031 31.17 32.5812 31.17C31.4594 31.17 30.55 32.0794 30.55 33.2012C30.55 34.3231 31.4594 35.2325 32.5812 35.2325Z" fill="white"/>
<path d="M27.7557 28.2858C28.2028 25.571 26.8851 22.8701 24.4702 21.5517L21.0284 19.6726C19.6876 18.9406 18.4341 18.0588 17.2921 17.0443L9.51904 10.139L16.4243 17.912C17.4388 19.0541 18.3206 20.3075 19.0526 21.6484L20.9317 25.0902C22.2501 27.5051 24.951 28.8228 27.6658 28.3756C27.7119 28.3681 27.7481 28.3319 27.7557 28.2858Z" fill="white"/>
<path d="M40.5299 21.5517C38.1149 22.8701 36.7972 25.571 37.2444 28.2858C37.252 28.3319 37.2881 28.3681 37.3342 28.3756C40.049 28.8228 42.7499 27.5051 44.0684 25.0902L45.9474 21.6484C46.6794 20.3075 47.5612 19.0541 48.5757 17.912L55.481 10.139L47.708 17.0443C46.5659 18.0588 45.3125 18.9406 43.9717 19.6726L40.5299 21.5517Z" fill="white"/>
<path d="M44.0684 41.1499C42.7499 38.7349 40.049 37.4172 37.3342 37.8644C37.2881 37.872 37.252 37.9081 37.2444 37.9542C36.7972 40.669 38.1149 43.3699 40.5299 44.6884L43.9717 46.5674C45.3125 47.2994 46.5659 48.1812 47.708 49.1957L55.481 56.101L48.5757 48.328C47.5612 47.1859 46.6794 45.9325 45.9474 44.5917L44.0684 41.1499Z" fill="white"/>
<path d="M24.4702 44.6884C26.8851 43.3699 28.2028 40.669 27.7557 37.9542C27.7481 37.9081 27.7119 37.872 27.6658 37.8644C24.951 37.4172 22.2501 38.7349 20.9317 41.1499L19.0526 44.5917C18.3206 45.9325 17.4388 47.1859 16.4243 48.328L9.51904 56.101L17.292 49.1957C18.4341 48.1812 19.6876 47.2994 21.0284 46.5674L24.4702 44.6884Z" fill="white"/>
<path fill-rule="evenodd" clip-rule="evenodd" d="M33.8443 57.4585L34.0109 56.4469C34.0109 56.4469 34.011 56.4469 34.011 56.4469L33.8444 57.4585C33.8443 57.4585 33.8443 57.4585 33.8443 57.4585ZM34.0109 9.79298L33.8443 8.78137C33.8443 8.78137 33.8443 8.78137 33.8444 8.78138L34.011 9.79298C34.011 9.79298 34.0109 9.79298 34.0109 9.79298ZM8.23883 30.7494L9.26133 30.581C9.79065 25.6805 11.8345 21.234 14.9153 17.7192L14.2462 16.9659C10.9289 20.7116 8.74683 25.4857 8.23883 30.7494ZM29.9611 9.88123L30.1295 8.85873C24.8658 9.36673 20.0916 11.5489 16.346 14.8662L17.0992 15.5353C20.614 12.4545 25.0606 10.4106 29.9611 9.88123ZM35.039 9.88123L34.8706 8.85873C40.1342 9.36673 44.9084 11.5488 48.6541 14.8661L47.9008 15.5353C44.386 12.4544 39.9395 10.4105 35.039 9.88123ZM55.7387 30.581L56.7612 30.7494C56.2532 25.4857 54.0711 20.7116 50.7538 16.9659L50.0847 17.7191C53.1655 21.234 55.2094 25.6805 55.7387 30.581ZM55.7387 35.6589L56.7612 35.4905C56.2532 40.7542 54.0711 45.5283 50.7538 49.274L50.0847 48.5208C53.1655 45.0059 55.2094 40.5594 55.7387 35.6589ZM35.039 56.3586L34.8706 57.3811C40.1342 56.8731 44.9084 54.691 48.654 51.3738L47.9008 50.7046C44.386 53.7854 39.9395 55.8293 35.039 56.3586ZM29.9611 56.3586L30.1295 57.3811C24.8658 56.8731 20.0917 54.691 16.346 51.3737L17.0992 50.7046C20.6141 53.7854 25.0606 55.8293 29.9611 56.3586ZM8.23883 35.4905L9.26133 35.6589C9.79065 40.5594 11.8345 45.0059 14.9154 48.5207L14.2462 49.274C10.9289 45.5283 8.74683 40.7541 8.23883 35.4905ZM49.406 49.2625C49.1574 49.5228 48.9028 49.7773 48.6425 50.0259L49.136 50.4643L49.3925 50.6922C49.6235 50.4701 49.8502 50.2435 50.0723 50.0125L49.8444 49.756L49.406 49.2625ZM48.6425 16.214C48.9028 16.4626 49.1574 16.7171 49.406 16.9774L49.8444 16.4839L50.0723 16.2274C49.8502 15.9964 49.6236 15.7698 49.3926 15.5477L49.136 15.7756L48.6425 16.214ZM16.3575 16.214L15.8639 15.7756L15.6075 15.5477C15.3765 15.7698 15.1499 15.9964 14.9278 16.2274L15.1556 16.4839L15.594 16.9774C15.8426 16.7172 16.0972 16.4626 16.3575 16.214ZM15.5941 49.2624L15.1556 49.756L14.9278 50.0125C15.1499 50.2434 15.3765 50.4701 15.6075 50.6922L15.8639 50.4643L16.3575 50.0259C16.0972 49.7773 15.8427 49.5227 15.5941 49.2624Z" fill="white"/>
</svg>
